<svg width="350" height="600" viewBox="0 0 389.509 620.028" fill="none" xmlns="http://www.w3.org/2000/svg" xmlns:xlink="http://www.w3.org/1999/xlink">
	<desc>
			Created with Pixso.
	</desc>
	<defs/>
	<path id="Vector" d="M17.4285 330.653L24.6729 308.108C24.6729 308.108 71.1396 306.037 71.5246 309.319C71.9095 312.601 60.388 339.87 57.3174 339.87C54.2469 339.87 17.4285 330.653 17.4285 330.653Z" fill="#0E6AC3" fill-opacity="1.000000" fill-rule="nonzero"/>
	<path id="Vector" d="M170.219 274.711C166.134 269.56 163.88 265.274 162.678 261.87L161.862 262.377C157.552 243.09 165.838 224.329 165.838 224.329L193.262 216.647C193.262 216.647 197.487 229.873 200.943 238.019C206.319 245.264 215.023 247.569 215.023 247.569L220.338 282.645C220.343 282.65 181.994 289.561 170.219 274.711Z" fill="#E54728" fill-opacity="1.000000" fill-rule="nonzero"/>
	<path id="Vector" d="M130.668 187.792C113.024 198.051 95.4036 203.22 75.0319 201.943L18.1986 173.519C10.9636 153.119 5.36243 131.719 6.37659 110.099C7.39069 88.478 15.7619 66.4585 32.4667 52.6973C40.3497 46.2041 49.7538 41.7534 57.5804 35.1897C68.6513 25.9028 76.384 12.5457 89.1028 5.6814C109.277 -5.2063 137.527 -0.581787 147.194 20.7336C161.866 19.1985 179.829 33.6965 167.655 73.5293C164.322 84.4404 158.815 98.9526 160.622 110.216C165.838 142.762 154.448 173.97 130.668 187.792Z" fill="#2E0031" fill-opacity="1.000000" fill-rule="nonzero"/>
	<path id="Vector" d="M1.79889 181.519C8.47052 133.531 48.0965 125.193 48.0965 125.193L129.513 128.071C129.513 128.071 149.866 128.949 164.843 147.518C179.82 166.087 187.309 173.575 187.886 190.858C188.464 208.14 178.092 232.911 173.486 241.55C168.876 250.189 172.336 273.232 172.336 273.232C172.336 273.232 110.367 332.568 17.4286 319.506C20.1188 311.557 22.9547 303.13 23.7435 296.294C3.55017 265.753 -3.75531 221.507 1.79889 181.519Z" fill="#FF572F" fill-opacity="1.000000" fill-rule="nonzero"/>
	<path id="Vector" d="M174.444 270.71C174.604 271.452 174.224 272.231 173.458 272.442C172.754 272.635 171.885 272.208 171.726 271.456C170.303 264.883 169.956 258.094 170.716 251.413C171.486 244.624 173.308 238.018 176.153 231.807C177.721 228.384 179.614 225.116 181.797 222.046C182.238 221.426 183.027 221.13 183.722 221.539C184.332 221.896 184.67 222.844 184.229 223.464C180.468 228.746 177.599 234.619 175.735 240.826C173.876 247 172.998 253.437 173.158 259.883C173.247 263.531 173.674 267.146 174.444 270.71Z" fill="#180205" fill-opacity="1.000000" fill-rule="nonzero"/>
	<path id="Vector" d="M72.1021 66.4353C71.3321 51.2656 84.5814 53.3784 88.0416 60.4819C88.0416 60.4819 103.404 61.0596 112.813 46.8477C122.221 32.6406 137.264 31.678 143.598 39.9365C143.598 39.9365 153.133 38.2087 154.481 52.6084C155.824 67.0081 150.035 112.324 120.86 111.752C120.86 111.752 121.066 122.888 121.836 126.729L129.518 128.072C129.518 128.072 123.545 146.387 94.7603 147.467C58.8527 148.81 48.1011 125.194 48.1011 125.194L69.224 120.203C69.224 120.203 83.4312 101.385 86.1214 79.4968C86.1214 79.4922 72.8721 81.605 72.1021 66.4353Z" fill="#FFBEAE" fill-opacity="1.000000" fill-rule="nonzero"/>
	<path id="Vector" d="M66.6607 143.745C61.2521 141.337 56.2378 138.088 51.8057 134.158C51.2375 133.651 51.2892 132.679 51.8057 132.167C52.3691 131.604 53.2283 131.66 53.7963 132.167C61.3084 138.825 70.6421 143.299 80.4969 145.149C90.4081 147.008 100.718 145.952 110.127 142.379C115.39 140.379 120.391 137.548 124.79 134.036C125.381 133.562 126.203 133.454 126.78 134.036C127.273 134.529 127.377 135.552 126.78 136.027C118.381 142.736 108.268 147.004 97.6103 148.398C87.0887 149.774 76.3372 148.055 66.6607 143.745Z" fill="#180205" fill-opacity="1.000000" fill-rule="nonzero"/>
	<path id="Vector" d="M70.1678 244.812C69.1771 241.103 68.1818 237.394 67.1912 233.685C65.6136 227.797 64.0408 221.914 62.4633 216.027C62.1017 214.674 61.7402 213.327 61.3787 211.975C60.9092 210.224 63.6276 209.472 64.0971 211.224C65.0878 214.933 66.0831 218.642 67.0738 222.351C68.6513 228.238 70.2241 234.121 71.8016 240.009C72.1631 241.361 72.5247 242.708 72.8862 244.061C73.3557 245.816 70.6373 246.563 70.1678 244.812Z" fill="#180205" fill-opacity="1.000000" fill-rule="nonzero"/>
	<path id="Vector" d="M50.214 197.779L109.545 132.11C109.545 132.11 136.814 135.18 158.171 140.603C179.529 146.026 199.009 156.308 199.009 156.308C199.009 156.308 209.779 145.937 228.597 143.453C247.414 140.969 273.528 138.641 273.528 138.641L281.467 148.265L211.314 183.093L53.3784 212.864L50.214 197.779Z" fill="#FCF4E6" fill-opacity="1.000000" fill-rule="nonzero"/>
	<path id="Vector" d="M139.499 234.646L50.2141 216.654L110.296 144.75L187.914 161.488L203.445 161.488L285.82 147.525L228.789 216.654L163.12 231.768L139.499 234.646Z" fill="#0E6AC3" fill-opacity="1.000000" fill-rule="nonzero"/>
	<path id="Vector" d="M187.914 161.487L203.445 161.487L163.12 231.767L139.499 234.645L187.914 161.487Z" fill="#1058C1" fill-opacity="1.000000" fill-rule="nonzero"/>
	<path id="Vector" d="M156.209 224.333L143.922 234.643C143.922 234.643 130.48 228.225 124.719 221.835C124.719 221.835 134.706 214.868 136.241 197.97C137.776 181.073 146.035 182.223 149.875 184.143C153.716 186.064 152.753 191.824 158.134 192.975C163.51 194.125 183.862 180.303 192.891 183.951C201.915 187.599 199.802 198.158 194.041 204.881C188.276 211.6 174.834 221.704 156.209 224.333Z" fill="#FFBEAE" fill-opacity="1.000000" fill-rule="nonzero"/>
	<path id="Vector" d="M41.5704 307.801C18.4991 304.505 5.20282 264.418 1.83649 226.037C-0.0932007 204.045 71.5247 244.437 71.5247 244.437C81.3185 241.558 127.978 216.651 127.978 216.651C138.349 226.886 148.138 233.492 148.138 233.492C136.621 250.775 77.8629 312.989 41.5704 307.801Z" fill="#FF572F" fill-opacity="1.000000" fill-rule="nonzero"/>
	<path id="Vector" d="M41.9434 306.445C41.9772 306.45 42.0061 306.455 42.0399 306.455C42.0447 306.46 42.0206 306.455 41.9434 306.445Z" fill="#180205" fill-opacity="1.000000" fill-rule="nonzero"/>
	<path id="Vector" d="" fill="#180205" fill-opacity="1.000000" fill-rule="nonzero"/>
	<path id="Vector" d="" fill="#180205" fill-opacity="1.000000" fill-rule="nonzero"/>
	<path id="Vector" d="M128.691 217.868C128.372 218.032 128.053 218.196 127.733 218.365C127.485 218.126 127.231 217.891 126.982 217.647C127.555 217.722 128.123 217.792 128.691 217.868Z" fill="#180205" fill-opacity="1.000000" fill-rule="nonzero"/>
	<path id="Vector" d="M127.733 218.366C128.053 218.202 128.372 218.038 128.691 217.868C128.123 217.793 127.555 217.723 126.982 217.648C127.231 217.892 127.484 218.122 127.733 218.366C126.179 219.174 124.621 219.986 123.062 220.789C118.479 223.16 113.888 225.517 109.291 227.86C103.502 230.808 97.704 233.738 91.8821 236.63C86.3796 239.362 80.8583 242.071 75.29 244.668C71.5574 246.409 67.7967 248.236 63.8951 249.574C63.6369 249.663 63.374 249.748 63.1064 249.827C61.3645 250.344 60.6227 247.625 62.3552 247.109C63.7543 246.696 65.1064 246.123 66.4539 245.564C66.4633 245.56 66.468 245.56 66.4774 245.555C66.4868 245.55 66.4868 245.55 66.4962 245.546C66.5947 245.503 66.6981 245.461 66.7966 245.419C67.0502 245.311 67.3037 245.203 67.5526 245.095C68.0455 244.884 68.5338 244.668 69.0221 244.447C70.1301 243.954 71.2288 243.452 72.3274 242.945C77.7314 240.452 83.079 237.841 88.4125 235.203C94.2766 232.306 100.117 229.362 105.948 226.395C110.747 223.953 115.54 221.498 120.325 219.023C122.602 217.845 124.86 216.61 127.161 215.479C127.193 215.465 127.226 215.446 127.254 215.427C127.818 215.136 128.499 215.192 128.963 215.648C134.734 221.333 140.931 226.634 147.518 231.338C147.955 231.653 148.396 231.963 148.842 232.268C149.443 232.677 149.791 233.526 149.349 234.193C146.856 237.926 143.973 241.414 141.062 244.827C136.879 249.729 132.489 254.457 127.968 259.049C122.606 264.5 117.052 269.762 111.305 274.8C105.249 280.11 98.9717 285.176 92.4268 289.867C86.2059 294.322 79.722 298.454 72.8767 301.886C66.8389 304.914 60.449 307.487 53.7867 308.731C47.6926 309.867 41.2416 309.966 35.448 307.506C28.5745 304.59 23.3536 298.759 19.3582 292.623C14.2782 284.82 10.7945 275.983 8.08075 267.115C4.95856 256.912 2.88806 246.405 1.49835 235.832C1.15558 233.221 0.859802 230.601 0.606262 227.977C0.531128 227.221 1.30579 226.568 2.01477 226.568C2.83636 226.568 3.34814 227.216 3.42328 227.977C4.44208 238.48 6.16046 248.926 8.78033 259.152C11.1325 268.34 14.1796 277.458 18.6539 285.852C22.1329 292.383 26.6918 298.938 32.8798 302.952C35.6264 304.736 38.3777 305.877 41.6501 306.388C41.7206 306.398 42.0117 306.44 42.0351 306.445C42.0023 306.44 41.9741 306.435 41.9412 306.435C42.0211 306.445 42.0398 306.449 42.0351 306.445C42.1478 306.459 42.2651 306.473 42.3779 306.487C42.7347 306.529 43.0915 306.562 43.4483 306.59C44.1479 306.647 44.8521 306.675 45.5564 306.684C46.9836 306.703 48.4109 306.633 49.8289 306.487C50.1669 306.454 50.5002 306.412 50.8336 306.37C50.9509 306.355 50.9792 306.351 50.9838 306.351C50.9885 306.351 51.0167 306.346 51.134 306.327C51.3359 306.299 51.5425 306.266 51.7444 306.233C52.4769 306.116 53.2092 305.985 53.937 305.834C55.491 305.515 57.0263 305.121 58.5475 304.67C61.7167 303.731 64.8248 302.534 67.7169 301.233C74.4308 298.21 80.7878 294.43 86.882 290.308C93.3658 285.923 99.5585 281.12 105.535 276.068C111.399 271.11 117.057 265.908 122.522 260.518C127.287 255.818 131.917 250.973 136.353 245.959C138.161 243.917 139.936 241.846 141.663 239.733C142.401 238.832 143.128 237.921 143.842 237.001C143.879 236.954 143.992 236.803 144.016 236.775C143.987 236.813 143.959 236.85 143.926 236.888C144.006 236.78 144.025 236.757 144.016 236.775C144.058 236.724 144.095 236.672 144.138 236.616C144.302 236.4 144.466 236.188 144.626 235.972C144.912 235.592 145.199 235.207 145.481 234.818C145.72 234.489 145.945 234.151 146.18 233.817C146.593 234.109 147.011 234.4 147.429 234.681C147.26 234.038 147.091 233.395 146.922 232.756C146.682 233.118 146.424 233.465 146.18 233.817C141.837 230.784 137.715 227.385 133.738 223.902C131.691 222.127 129.691 220.268 127.733 218.366Z" fill="#180205" fill-opacity="1.000000" fill-rule="nonzero"/>
	<path id="Vector" d="M143.926 236.911C143.954 236.874 143.982 236.836 144.016 236.798C144.03 236.783 144.011 236.807 143.926 236.911Z" fill="#180205" fill-opacity="1.000000" fill-rule="nonzero"/>
	<path id="Vector" d="M147.429 234.709C147.011 234.427 146.593 234.136 146.18 233.845C146.429 233.493 146.683 233.141 146.922 232.784C147.096 233.422 147.265 234.066 147.429 234.709Z" fill="#180205" fill-opacity="1.000000" fill-rule="nonzero"/>
	<path id="Vector" d="M215.155 189.693C218.225 182.378 242.353 167.677 255.861 183.828C269.373 199.979 250.1 221.83 250.1 221.83L244.724 236.943C233.202 241.169 216.305 231.567 216.305 231.567L220.145 226.192C216.305 213.905 221.296 208.862 221.296 208.862C214.774 204.979 212.084 197.007 215.155 189.693Z" fill="#FFBEAE" fill-opacity="1.000000" fill-rule="nonzero"/>
	<path id="Vector" d="M200.948 238.024C200.948 238.024 212.488 232.794 215.925 228.019C215.925 228.019 226.296 233.874 247.414 234.644C247.414 234.644 240.118 272.664 220.338 282.65L200.948 238.024Z" fill="#E54728" fill-opacity="1.000000" fill-rule="nonzero"/>
	<path id="Vector" d="M299.261 520.755C295.421 509.233 288.51 496.947 264.697 473.903C240.883 450.86 213.887 406.314 213.887 406.314C213.887 406.314 164.078 411.69 134.123 417.065C104.169 422.441 55.5428 429.484 30.4338 394.792C6.25446 361.383 17.4285 330.658 17.4285 330.658L42.7253 331.809C42.7253 331.809 104.897 278.454 144.11 271.13C183.322 263.806 227.831 267.29 252.41 303.39C276.988 339.49 336.897 502.323 336.897 502.323C315.389 534.577 299.261 520.755 299.261 520.755Z" fill="#0E6AC3" fill-opacity="1.000000" fill-rule="nonzero"/>
	<path id="Vector" d="M42.7349 407.39C101.404 426.518 135.386 371.177 135.386 371.177L126.189 418.428C100.916 422.551 66.6654 425.49 42.7349 407.39Z" fill="#180205" fill-opacity="1.000000" fill-rule="nonzero"/>
	<path id="Vector" d="M251.194 304.098C245.738 296.121 238.836 289.182 230.766 283.853C223.075 278.773 214.516 275.186 205.605 272.881C187.417 268.181 168.115 268.641 149.683 271.585C145.852 272.195 142.044 272.89 138.307 273.956C134.748 274.97 131.264 276.219 127.837 277.609C120.179 280.721 112.817 284.557 105.653 288.665C91.4269 296.821 77.8958 306.178 64.8015 316.037C57.7354 321.357 50.8056 326.855 44.0307 332.54C43.9274 332.625 43.8241 332.714 43.7255 332.803C42.3546 333.977 40.3544 331.996 41.7348 330.812C47.4909 325.873 53.4677 321.183 59.482 316.573C72.3652 306.69 85.6755 297.295 99.6151 288.947C106.935 284.562 114.447 280.458 122.24 276.97C129.072 273.914 136.166 271.219 143.542 269.81C162.298 266.228 181.938 265.143 200.755 268.89C219.465 272.613 236.869 281.764 249.09 296.624C250.691 298.572 252.208 300.595 253.631 302.68C254.649 304.178 252.208 305.586 251.194 304.098Z" fill="#180205" fill-opacity="1.000000" fill-rule="nonzero"/>
	<path id="Vector" d="M128.748 540.721C128.748 540.721 123.757 476.972 124.715 440.102C125.672 403.236 141.767 305.035 199.009 318.036C256.25 331.036 216.272 433.956 199.009 458.534C181.745 483.113 168.881 533.805 168.017 546.096C168.017 546.096 145.645 547.632 128.748 540.721Z" fill="#0E6AC3" fill-opacity="1.000000" fill-rule="nonzero"/>
	<path id="Vector" d="M223.146 339.539C223.136 339.515 223.127 339.487 223.112 339.463C223.165 339.577 223.165 339.582 223.146 339.539Z" fill="#180205" fill-opacity="1.000000" fill-rule="nonzero"/>
	<path id="Vector" d="M218.502 331.479C218.497 331.47 218.488 331.46 218.483 331.451C218.578 331.579 218.554 331.546 218.502 331.479Z" fill="#180205" fill-opacity="1.000000" fill-rule="nonzero"/>
	<path id="Vector" d="M226.667 353.017C226.662 352.988 226.662 352.965 226.657 352.936C226.667 353.017 226.672 353.031 226.667 353.017Z" fill="#180205" fill-opacity="1.000000" fill-rule="nonzero"/>
	<path id="Vector" d="M212.92 325.865C212.991 325.922 212.972 325.903 212.924 325.87C212.877 325.837 212.82 325.79 212.92 325.865Z" fill="#180205" fill-opacity="1.000000" fill-rule="nonzero"/>
	<path id="Vector" d="M211.098 432.282C211.065 432.368 211.079 432.325 211.098 432.277C211.117 432.234 211.127 432.21 211.098 432.282Z" fill="#180205" fill-opacity="1.000000" fill-rule="nonzero"/>
	<path id="Vector" d="M174.618 321.129C174.594 321.138 174.57 321.148 174.547 321.157C174.66 321.11 174.66 321.11 174.618 321.129Z" fill="#180205" fill-opacity="1.000000" fill-rule="nonzero"/>
	<path id="Vector" d="M205.596 321.605C205.571 321.595 205.546 321.585 205.521 321.575C205.501 321.565 205.516 321.57 205.596 321.605Z" fill="#180205" fill-opacity="1.000000" fill-rule="nonzero"/>
	<path id="Vector" d="M128.151 416.096C128.128 416.27 128.104 416.443 128.081 416.617C127.912 417.899 127.752 419.185 127.602 420.472C127.062 425.106 126.635 429.758 126.367 434.416C126.259 436.308 126.174 438.205 126.123 440.102C126.076 441.909 123.259 441.918 123.306 440.102C123.419 435.848 123.696 431.599 124.076 427.364C124.545 422.138 125.174 416.927 125.94 411.739C126.775 406.072 127.78 400.429 128.973 394.823C130.226 388.917 131.687 383.048 133.391 377.254C135.1 371.456 137.053 365.728 139.344 360.136C141.56 354.718 144.067 349.408 147.02 344.351C149.786 339.623 152.95 335.097 156.617 331.022C160.012 327.252 163.899 323.872 168.247 321.247C172.477 318.693 177.172 316.871 182.05 316.045C187.459 315.129 192.957 315.355 198.323 316.453C203.473 317.51 208.516 319.407 212.873 322.383C216.849 325.097 220.192 328.614 222.751 332.689C225.333 336.802 227.094 341.422 228.23 346.131C229.474 351.281 230.019 356.605 230.118 361.896C230.226 367.601 229.817 373.305 229.085 378.958C228.301 384.973 227.174 390.935 225.765 396.832C224.376 402.649 222.728 408.401 220.873 414.086C219.098 419.519 217.136 424.89 214.986 430.186C213.037 434.984 210.948 439.731 208.671 444.383C206.854 448.097 204.924 451.759 202.783 455.295C201.966 456.637 201.121 457.966 200.215 459.252C199.778 459.872 198.985 460.163 198.29 459.76C197.675 459.398 197.346 458.459 197.783 457.835C199.802 454.957 201.572 451.9 203.239 448.811C205.427 444.754 207.431 440.594 209.309 436.383C209.835 435.209 210.347 434.031 210.849 432.848C210.91 432.707 210.967 432.566 211.028 432.425C211.037 432.406 211.065 432.331 211.089 432.284C211.07 432.331 211.051 432.374 211.089 432.289C211.122 432.219 211.112 432.237 211.089 432.284C211.103 432.251 211.117 432.219 211.117 432.214C211.253 431.89 211.389 431.561 211.525 431.237C211.784 430.618 212.037 429.998 212.291 429.378C213.333 426.815 214.328 424.232 215.281 421.636C217.286 416.166 219.103 410.626 220.704 405.025C222.338 399.297 223.751 393.503 224.859 387.649C225.958 381.855 226.704 376.517 227.089 370.62C227.441 365.207 227.427 359.751 226.822 354.356C226.789 354.056 226.751 353.755 226.714 353.455C226.695 353.309 226.676 353.168 226.657 353.023C226.657 353.037 226.657 353.023 226.648 352.943C226.653 352.971 226.653 352.995 226.657 353.023C226.653 352.985 226.62 352.751 226.61 352.68C226.521 352.051 226.423 351.422 226.315 350.793C226.103 349.563 225.855 348.337 225.568 347.121C225.014 344.779 224.305 342.464 223.418 340.224C223.329 339.994 223.235 339.769 223.141 339.539C223.16 339.581 223.16 339.576 223.108 339.464C223.117 339.487 223.127 339.515 223.141 339.539C223.113 339.473 223.038 339.295 223.023 339.262C222.962 339.121 222.897 338.976 222.836 338.835C222.596 338.304 222.347 337.778 222.089 337.262C221.573 336.234 221.014 335.234 220.413 334.257C219.821 333.299 219.178 332.374 218.497 331.482C218.549 331.548 218.573 331.581 218.479 331.454C218.483 331.463 218.493 331.473 218.497 331.482C218.46 331.435 218.413 331.37 218.385 331.337C218.305 331.233 218.22 331.13 218.136 331.027C217.948 330.792 217.751 330.557 217.558 330.332C217.192 329.9 216.812 329.478 216.422 329.069C215.638 328.243 214.807 327.454 213.939 326.712C213.732 326.538 213.525 326.365 213.319 326.196C213.197 326.097 213.079 326.003 212.957 325.909C212.953 325.905 212.939 325.895 212.924 325.881C212.967 325.914 212.99 325.933 212.92 325.876C212.821 325.801 212.882 325.848 212.924 325.881C212.878 325.844 212.798 325.787 212.784 325.773C212.319 325.421 211.845 325.078 211.356 324.75C210.366 324.078 209.337 323.463 208.281 322.9C207.736 322.609 207.187 322.336 206.628 322.073C206.366 321.951 206.098 321.829 205.83 321.712C205.793 321.698 205.558 321.594 205.516 321.576C205.539 321.585 205.563 321.594 205.586 321.604C205.511 321.571 205.497 321.566 205.516 321.576C205.384 321.519 205.248 321.468 205.117 321.411C202.614 320.402 200.008 319.66 197.36 319.13C196.67 318.989 195.975 318.867 195.281 318.759C195.121 318.735 194.961 318.712 194.802 318.688C194.759 318.684 194.576 318.656 194.511 318.646C194.529 318.646 194.543 318.651 194.562 318.651C194.473 318.641 194.473 318.641 194.511 318.646C194.168 318.599 193.82 318.562 193.478 318.524C192.158 318.383 190.834 318.299 189.506 318.28C188.229 318.261 186.952 318.303 185.679 318.406C185.074 318.458 184.468 318.519 183.862 318.599C183.937 318.59 183.97 318.585 183.82 318.604C183.834 318.604 183.848 318.599 183.862 318.599C183.792 318.608 183.689 318.623 183.642 318.632C183.501 318.651 183.355 318.674 183.214 318.698C182.89 318.749 182.571 318.806 182.247 318.862C179.876 319.299 177.552 319.97 175.308 320.853C175.073 320.947 174.838 321.041 174.608 321.139C174.651 321.12 174.646 321.12 174.538 321.167C174.561 321.158 174.585 321.148 174.608 321.139C174.543 321.167 174.36 321.247 174.322 321.261C174.176 321.327 174.031 321.388 173.885 321.454C173.341 321.698 172.805 321.956 172.27 322.228C171.204 322.773 170.162 323.36 169.143 323.994C168.12 324.632 167.12 325.318 166.148 326.036C166.035 326.121 165.923 326.205 165.805 326.29C165.768 326.318 165.655 326.402 165.608 326.44C165.622 326.426 165.641 326.416 165.655 326.402C165.57 326.468 165.57 326.468 165.608 326.44C165.369 326.628 165.124 326.815 164.89 327.008C164.411 327.393 163.937 327.792 163.477 328.196C161.575 329.853 159.796 331.646 158.129 333.539C156.302 335.609 154.964 337.337 153.41 339.558C150.213 344.121 147.481 348.999 145.081 354.028C143.804 356.699 142.706 359.225 141.659 361.84C140.551 364.601 139.522 367.39 138.565 370.207C136.63 375.888 134.973 381.658 133.532 387.484C132.128 393.166 130.931 398.898 129.912 404.659C129.428 407.396 128.987 410.143 128.583 412.894C128.484 413.561 128.391 414.227 128.297 414.894C128.254 415.204 128.212 415.509 128.17 415.819C128.132 416.101 128.161 415.899 128.165 415.838C128.175 415.922 128.161 416.011 128.151 416.096Z" fill="#180205" fill-opacity="1.000000" fill-rule="nonzero"/>
	<path id="Vector" d="M165.674 326.402C165.659 326.417 165.639 326.427 165.624 326.442C165.585 326.472 165.585 326.472 165.674 326.402Z" fill="#180205" fill-opacity="1.000000" fill-rule="nonzero"/>
	<path id="Vector" d="M183.871 318.595C183.857 318.595 183.843 318.6 183.829 318.6C183.975 318.581 183.947 318.586 183.871 318.595Z" fill="#180205" fill-opacity="1.000000" fill-rule="nonzero"/>
	<path id="Vector" d="M194.567 318.647C194.547 318.647 194.532 318.642 194.512 318.642C194.472 318.637 194.472 318.637 194.567 318.647Z" fill="#180205" fill-opacity="1.000000" fill-rule="nonzero"/>
	<path id="Vector" d="M344.193 574.517C323.07 573.747 306.172 564.916 303.867 562.611C301.562 560.305 299.642 558 299.257 544.178C298.872 530.351 299.257 520.75 299.257 520.75C312.313 522.285 313.849 513.839 320.379 506.923C326.91 500.007 335.615 499.073 336.892 498.857C340.742 498.209 351.869 516.524 363.006 527.276C374.142 538.028 389.504 538.798 389.504 549.934C389.509 565.686 365.315 575.287 344.193 574.517Z" fill="#F71F6A" fill-opacity="1.000000" fill-rule="nonzero"/>
	<path id="Vector" d="M344.193 574.517C323.07 573.747 306.172 564.916 303.867 562.611C301.604 560.348 299.717 558.08 299.285 544.939C324.995 547.896 322.173 561.151 349.184 562.611C368.771 563.667 382.701 554.695 389.467 549.014C389.49 549.314 389.509 549.62 389.509 549.934C389.509 565.686 365.316 575.287 344.193 574.517Z" fill="#FFFFFF" fill-opacity="1.000000" fill-rule="nonzero"/>
	<path id="Vector" d="M129.132 537.651C134.766 536.501 139.119 542.261 151.152 543.797C160.556 544.999 163.73 541.261 168.261 543.811C172.787 546.355 173.299 559.929 173.299 572.986C173.299 586.042 179.444 597.949 179.059 605.63C178.674 613.311 173.683 621.377 151.025 619.837C128.367 618.302 123.512 610.621 124.597 598.329C125.682 586.042 124.597 577.465 120.864 565.558C118.287 557.347 123.292 538.844 129.132 537.651Z" fill="#F71F6A" fill-opacity="1.000000" fill-rule="nonzero"/>
	<path id="Vector" d="M151.021 619.834C130.499 618.444 124.583 612.012 124.452 601.683C146.349 612.608 168.754 609.453 178.923 607.073C177.975 614.28 172.261 621.275 151.021 619.834Z" fill="#FFFFFF" fill-opacity="1.000000" fill-rule="nonzero"/>
	<path id="Vector" d="M140.33 543.62C138.358 542.789 136.466 541.793 134.677 540.62C134.044 540.202 133.776 539.375 134.17 538.695C134.541 538.065 135.457 537.77 136.095 538.188C141.992 542.061 149.035 543.953 156.082 543.62C158.035 543.526 159.965 543.249 161.866 542.803C162.608 542.629 163.392 543.033 163.599 543.789C163.796 544.502 163.359 545.347 162.613 545.521C155.218 547.254 147.335 546.573 140.33 543.62Z" fill="#180205" fill-opacity="1.000000" fill-rule="nonzero"/>
	<path id="Vector" d="M320.239 508.508C316.582 512.578 314.76 518.072 310.079 521.227C307.619 522.884 304.511 523.734 301.614 522.837C299.886 522.302 300.623 519.583 302.36 520.119C304.539 520.79 306.741 520.081 308.656 518.795C310.769 517.372 312.248 515.236 313.6 513.118C315.07 510.823 316.469 508.475 318.309 506.447C320 504.583 322.014 502.977 324.192 501.719C326.699 500.273 329.469 499.254 332.319 498.775C333.07 498.648 333.836 498.972 334.052 499.761C334.24 500.437 333.822 501.367 333.066 501.493C328.136 502.324 323.591 504.78 320.239 508.508Z" fill="#180205" fill-opacity="1.000000" fill-rule="nonzero"/>
	<path id="Vector" d="M85.009 67.2048C84.8869 63.937 81.6332 61.3264 78.4359 61.7302C78.0556 61.7773 77.7317 61.3735 77.7317 61.0261C77.7317 60.6082 78.0556 60.3687 78.4359 60.3218C82.4173 59.8193 86.2672 63.2468 86.4175 67.2048C86.4503 68.1108 85.0418 68.1108 85.009 67.2048Z" fill="#180205" fill-opacity="1.000000" fill-rule="nonzero"/>
	<path id="Vector" d="M117.597 71.3457C116.24 71.0969 115.437 69.2705 115.803 67.2751C116.174 65.2798 117.573 63.8618 118.93 64.1106C120.287 64.3594 121.09 66.1858 120.724 68.1812C120.357 70.1814 118.954 71.5945 117.597 71.3457Z" fill="#180205" fill-opacity="1.000000" fill-rule="nonzero"/>
	<path id="Vector" d="M117.743 69.7041C117.743 70.2332 118.172 70.6619 118.7 70.6619C119.229 70.6619 119.658 70.2332 119.658 69.7041C119.658 69.1753 119.229 68.7463 118.7 68.7463C118.172 68.7463 117.743 69.1753 117.743 69.7041Z" fill="#FFFFFF" fill-opacity="1.000000" fill-rule="evenodd"/>
	<path id="Vector" d="M137.67 72.481C136.945 74.3774 137.404 76.3149 138.694 76.8083C139.985 77.302 141.62 76.1648 142.345 74.2681C143.07 72.3716 142.611 70.4341 141.32 69.9407C140.029 69.447 138.395 70.5845 137.67 72.481Z" fill="#180205" fill-opacity="1.000000" fill-rule="evenodd"/>
	<path id="Vector" d="M139.922 76.3098C139.4 76.2112 139.058 75.7136 139.151 75.1924C139.25 74.6714 139.748 74.3286 140.269 74.4224C140.79 74.5164 141.133 75.0188 141.039 75.5398C140.945 76.061 140.443 76.4084 139.922 76.3098Z" fill="#FFFFFF" fill-opacity="1.000000" fill-rule="nonzero"/>
	<path id="Vector" d="M123.104 58.3569C122.545 57.3569 121.63 56.5916 120.522 56.2771C119.311 55.9297 118.024 56.1689 116.972 56.8499C116.212 57.3428 115.503 56.1267 116.263 55.6338C117.616 54.7559 119.343 54.4741 120.897 54.9202C122.344 55.3333 123.592 56.3333 124.32 57.6479C124.761 58.4414 123.545 59.1504 123.104 58.3569Z" fill="#180205" fill-opacity="1.000000" fill-rule="nonzero"/>
	<path id="Vector" d="M146.584 65.7395C146.025 64.7395 145.11 63.9741 144.002 63.6597C142.79 63.3123 141.504 63.5515 140.452 64.2324C139.692 64.7253 138.983 63.5093 139.743 63.0164C141.095 62.1384 142.823 61.8567 144.377 62.3027C145.823 62.7158 147.072 63.7158 147.8 65.0305C148.241 65.8193 147.025 66.533 146.584 65.7395Z" fill="#180205" fill-opacity="1.000000" fill-rule="nonzero"/>
	<path id="Vector" d="M132.316 82.6992C132.184 82.4316 132.067 82.1592 131.95 81.8916C132.212 81.8306 132.475 81.7554 132.738 81.6663C132.597 82.0137 132.457 82.3564 132.316 82.6992Z" fill="#180205" fill-opacity="1.000000" fill-rule="nonzero"/>
	<path id="Vector" d="M133.114 83.0232C131.64 83.5254 130.095 83.624 128.565 83.3752C127.673 83.2297 128.053 81.8728 128.94 82.0183C129.954 82.1826 130.968 82.1265 131.954 81.8916C132.072 82.1638 132.189 82.4363 132.321 82.6992C132.461 82.3564 132.602 82.009 132.743 81.6663C132.485 81.7554 132.222 81.8306 131.954 81.8916C130.748 79.1262 130.175 76.1167 130.349 73.093C130.4 72.1917 131.809 72.187 131.757 73.093C131.583 76.1636 132.18 79.2295 133.541 81.9902C133.743 82.4128 133.565 82.8728 133.114 83.0232Z" fill="#180205" fill-opacity="1.000000" fill-rule="nonzero"/>
	<path id="Vector" d="M117.658 88.0247C117.08 87.3345 118.071 86.3345 118.653 87.0293C120.888 89.6868 124.569 90.9075 127.94 90.0295C128.818 89.7993 129.193 91.1609 128.315 91.3862C124.494 92.3816 120.212 91.0576 117.658 88.0247Z" fill="#180205" fill-opacity="1.000000" fill-rule="nonzero"/>
	<path id="Vector" d="M99.3051 102.922C107.432 111.373 120.86 111.753 120.86 111.753L121.24 121.087C101.864 118.091 99.3051 102.922 99.3051 102.922Z" fill="#180205" fill-opacity="1.000000" fill-rule="nonzero"/>
	<path id="Vector" d="M228.31 209.131C231.71 209.981 235.292 209.91 238.672 209.004C240.424 208.535 241.175 211.253 239.419 211.723C233.067 213.427 225.963 212.469 220.526 208.666C215.629 205.243 212.39 199.797 212.573 193.717C212.676 190.309 213.822 187.064 215.972 184.412C216.451 183.82 217.465 183.914 217.963 184.412C218.545 184.994 218.441 185.811 217.963 186.402C214.84 190.252 214.62 196.06 216.831 200.389C219.113 204.858 223.503 207.924 228.31 209.131Z" fill="#180205" fill-opacity="1.000000" fill-rule="nonzero"/>
</svg>
